<svg id="Layer_1" data-name="Layer 1" xmlns="http://www.w3.org/2000/svg" width="573" height="64" viewBox="0 0 573 64"><defs><style>.cls-1{fill:#1d1d1b;}.cls-2{fill:#f39719;}</style></defs><title>56_Long_path</title><path class="cls-1" d="M9.5249,11.6147V30.1011H38.5181V34.92H9.5249V60.3574H4.311V6.7959H43.416v4.8188Z"/><path class="cls-1" d="M63.9546,60.3574V6.7959h5.2139V60.3574Z"/><path class="cls-1" d="M99.8184,11.6147V30.1011h28.9931V34.92H99.8184V60.3574H94.6045V6.7959H133.71v4.8188Z"/><path class="cls-1" d="M175.9727,11.6147V60.3574h-5.2139V11.6147h-20.54V6.7959h46.2148v4.8188Z"/><path class="cls-1" d="M242.332,34.6831V60.3574h-5.2138V34.6831L210.97,6.7959h6.7139L239.56,30.0107,261.5205,6.7959h6.8023Z"/><path class="cls-2" d="M322.1992,56.6445q-5.6865,4.5836-14.9306,4.5821-9.56,0-15.168-4.1075-6.2416-4.6611-6.2412-15.4052h5.2143q0,8.2953,4.503,11.6132,4.1858,3.0807,11.771,3.08,7.1865,0,11.5732-3.4756,4.3843-3.476,4.3848-9.9541a11.9523,11.9523,0,0,0-4.8194-10.1118q-4.4253-3.3954-11.7715-3.3969-9.4789,0-14.3774,7.3471H287.44l1.2641-27.4922h37.4458v4.8194H293.9175l-.711,14.7729q5.3716-4.2663,13.8247-4.2661,9.1641,0,15.09,4.6611A16.2855,16.2855,0,0,1,328.52,42.8984Q328.52,51.5894,322.1992,56.6445Z"/><path class="cls-2" d="M388.5459,27.4941q0-7.4253-4.1572-10.7837a16.2848,16.2848,0,0,0-10.5694-3.3574q-6.5742,0-10.6113,3.2388a11.2828,11.2828,0,0,0-4.1162,9.1641v5.9253q5.2251-4.66,14.49-4.6612,8.55,0,13.9366,4.355,5.8578,4.5938,5.8593,12.6689,0,8.0772-5.9131,12.67-5.4418,4.1967-13.956,4.1972t-13.875-4.2724q-5.7568-4.5879-5.7559-12.5811V25.5449q0-8.0691,6.0039-12.581Q365.41,8.7722,373.9434,8.771q8.452,0,13.8252,4.3447,5.9253,4.6626,5.9248,14.3784Zm-14.958,4.108q-6.5038,0-10.501,3.25-3.9946,3.25-3.9951,9.1918a11.0909,11.0909,0,0,0,3.9951,9.1153q3.9961,3.249,10.501,3.248,6.5025,0,10.5391-3.248a11.04,11.04,0,0,0,4.0371-9.1153,11.3806,11.3806,0,0,0-3.6836-8.8759Q380.4843,31.6018,373.5879,31.6021Z"/><path class="cls-1" d="M442.9883,60.9111q-10.5088,0-16.9063-3.7138-8.058-4.5806-8.0586-14.378V40.3711h5.2149v2.1328q0,13.5879,19.8281,13.5879a29.247,29.247,0,0,0,11.5342-1.9756q5.7656-2.6059,5.7676-7.8994a7.157,7.157,0,0,0-2.0547-5.53,14.4483,14.4483,0,0,0-6.0039-2.8437q-2.37-.7105-11.2178-2.5279-10.1908-2.1327-13.8252-3.95-7.5058-3.7119-7.5049-11.1386,0-13.9834,21.7256-13.9834,22.6715,0,22.9883,18.0122h-5.1348q-.5537-8.2947-5.4512-10.981-4.1088-2.21-12.4023-2.2119-16.5132,0-16.5117,9.1641a7.1432,7.1432,0,0,0,4.3457,6.7148q3.0805,1.659,10.7432,2.9229Q454.6,32.4713,459.499,35.3149q6.082,3.5545,6.083,11.1392,0,7.6626-7.9795,11.5332A33.4774,33.4774,0,0,1,442.9883,60.9111Z"/><path class="cls-1" d="M490.3867,60.3574V6.7959h5.2139V60.3574Z"/><path class="cls-1" d="M562.9531,60.3574,542.291,36.6631,521.2881,60.3574h-6.65L538.9482,32.813,515.7666,6.7959h6.85l19.6572,22.2656L562.1123,6.7959h6.7588l-23.1074,26.07L569.7,60.3574Z"/></svg>